<?xml version="1.0" encoding="utf-8"?>
<!-- Generator: Adobe Illustrator 28.0.0, SVG Export Plug-In . SVG Version: 6.00 Build 0)  -->
<svg version="1.1" xmlns="http://www.w3.org/2000/svg" xmlns:xlink="http://www.w3.org/1999/xlink" x="0px" y="0px"
	 viewBox="0 0 24 24" style="enable-background:new 0 0 24 24;" xml:space="preserve">
<style type="text/css">
	.st0{fill:#7ECAE8;}
	.st1{fill:#FFFFFF;}
	.st2{display:none;}
	
		.st3{display:inline;fill:none;stroke:#000000;stroke-width:0.75;stroke-linecap:round;stroke-linejoin:round;stroke-miterlimit:10;}
	.st4{display:inline;}
	.st5{fill:#111111;}
</style>
<g id="Layer_2">
	<circle class="st0" cx="12" cy="12" r="12"/>
</g>
<g id="Layer_4">
</g>
<g id="Layer_3">
	<polygon class="st1" points="12.4,3.2 9.7,3.6 8.5,5 8.2,6.9 8.7,8.4 10.8,10 11.2,12.5 9.7,15.6 8.5,17.7 8.4,19.1 9.4,20.3 
		11.4,20.6 14.1,20.1 16.3,19 17.3,15.8 16.8,12 15.9,10.3 16.8,7.9 17,5.9 16.6,4.4 15.6,3.6 13.6,3.2 	"/>
	<polygon class="st1" points="7.5,18.3 9.6,15.7 11,12 10.5,9.8 8.7,9.5 7.5,12 6.6,15.1 6.6,16.5 	"/>
</g>
<g id="Layer_1">
	<g id="Layer_1_00000043442936044477237560000017686485658134054324_" class="st2">
		<path class="st3" d="M9.1,22.1c1.2-0.2,2-0.1,3.2-0.1c0.8,0,1,0.1,1.2,0c1.4-0.1,2.7-1.1,3.4-2.1c1.9-2.7,0.8-6.8,0.2-7.7
			c-0.2-0.4-0.7-1.5-0.3-2.9c0.1-0.4,0.2-0.6,0.4-1.1c0.2-0.7,0.9-2.5,0.4-4.1c-0.5-1.5-2-2-2.6-2.3"/>
		<path class="st4" d="M15.9,2.1c-0.6-0.8-3.3-1.2-4.5-1C10.4,1.2,7.7,2,7,4.5C6.9,5,6.5,5.6,7,7.3c0.1,0.3,0.6,1.9-0.4,4.2
			c-0.3,0.7-1.7,4.1-1.5,5.7c0.1,0.7,0.1,2.7,1.6,4C7.4,21.8,8,22,8.5,22.1c0.4,0,0.8,0,1.1-0.1c0,0-1.5-0.4-1.5-1.8
			c0-0.1-0.1-1.3,1.2-3.1c0.4-0.5,2.6-2.7,2.5-5.4c0-0.4-0.1-1.4-1.8-2.8C9.9,8.6,7.3,6.8,8.2,4.6c0.1-0.4,0.9-2.5,3.6-2.3
			c0.5,0,1.1,0,2,0.8c0.3,0.2,0.9,0.7,1.4,0.7C15.7,3.8,16.6,2.9,15.9,2.1z M9,10.4c0.2,0,0.5,0.1,0.7,0.3c0.4,0.4,0.3,1,0.2,1.4
			c-0.3,1.8-1,3.2-1.1,3.4c-1.1,2.2-1.6,3.3-2.1,3.2c-0.3,0-0.4-0.5-0.6-1c-0.2-0.5-0.6-2.1,0.3-4.3C6.6,13.2,7.8,10.3,9,10.4z"/>
		<path class="st4" d="M18.2,13.4c-0.2-0.8-0.9-2.5-1.2-3.3c-0.1,1.1,0.2,1.9,0.4,2.2c0.4,0.8,1.2,3.3,0.7,5.7l0,0
			c0.1,0,0.5-0.3,0.5-0.6C18.7,16.2,18.6,15.1,18.2,13.4z"/>
		<path class="st4" d="M12.2,22c-1,0-1.8-0.1-2.8,0c-0.1,0-0.3,0-0.4,0.1c0,0,0,0,0,0l0,0c-0.2,0-0.4,0-0.6,0c0,0-0.1,0-0.1,0l0,0
			c0.9,0.7,1.7,1,2.2,1.2c0.4,0.1,1.1,0.1,1.3,0.1C12.3,23.1,12.4,22.4,12.2,22C12.3,22,12.3,22,12.2,22z"/>
		<path class="st4" d="M15.1,21.6L15.1,21.6c-0.5,0.3-1,0.5-1.6,0.5c0,0-0.1,0.1-0.1,0.1c0.3,0.3,0.8,0.4,1.2,0.5
			c0.6,0.1,1.5,0.2,1.6,0.1c0.2-0.1,0.1-0.6,0-0.7C16.1,21.9,15.4,21.7,15.1,21.6z"/>
		<path class="st4" d="M14,6.1c0,0.3,0.6,0.7,1.2,0.8C15.9,7,17.3,6.3,17.3,6c0-0.3-0.9-0.6-1.6-0.6C15,5.5,14,5.3,14,6.1z"/>
		<circle class="st4" cx="11.8" cy="5" r="0.9"/>
		<circle class="st4" cx="16.8" cy="4.6" r="0.6"/>
		<g class="st4">
			<path d="M13.3,22.4c-0.1,0-0.2,0-0.4,0c-0.2,0-0.4,0-0.7,0c-0.2,0-0.4,0-0.7,0c-0.8,0-1.5-0.1-2.4,0.1c-0.2,0-0.4-0.1-0.4-0.3
				c0-0.2,0.1-0.4,0.3-0.4c1-0.2,1.8-0.1,2.6-0.1c0.2,0,0.4,0,0.6,0c0.4,0,0.6,0,0.8,0c0.2,0,0.3,0,0.4,0c1.3,0,2.5-1,3.1-1.9
				c1.8-2.6,0.7-6.5,0.2-7.3c-0.2-0.3-0.8-1.6-0.3-3.2c0.1-0.3,0.2-0.5,0.2-0.7l0.2-0.4c0.2-0.6,0.9-2.4,0.4-3.8
				c-0.4-1.2-1.6-1.8-2.2-2l-0.1,0c-0.2-0.1-0.3-0.3-0.2-0.5c0.1-0.2,0.3-0.3,0.5-0.2l0.1,0c0.7,0.3,2.1,0.9,2.6,2.5
				c0.6,1.7-0.1,3.7-0.4,4.3l-0.2,0.4c-0.1,0.2-0.1,0.4-0.2,0.6c-0.4,1.3,0.1,2.3,0.2,2.6c0.5,0.9,1.8,5.2-0.2,8.1
				c-0.7,1.1-2.1,2.2-3.7,2.2C13.4,22.4,13.4,22.4,13.3,22.4z"/>
		</g>
	</g>
	<g id="Layer_2_00000027606867473857959080000004319351289970391457_">
		<g>
			<path class="st5" d="M17.4,13.1c-0.2-0.6-0.7-2-1-2.7c0-0.2,0-0.4,0.1-0.6c0.1-0.2,0.1-0.4,0.2-0.5l0.1-0.4
				c0.2-0.5,0.8-2.2,0.3-3.7c-0.5-1.3-1.7-1.9-2.2-2.1l-0.1,0c0,0,0,0,0,0h0c0,0,0,0,0,0c-0.9-0.4-2.4-0.5-3.1-0.4
				c-0.9,0.2-3.2,0.8-3.8,2.9c-0.1,0.4-0.4,1,0,2.4c0.1,0.2,0.5,1.6-0.3,3.5c-0.3,0.6-1.5,3.5-1.2,4.9c0.1,0.6,0.1,2.3,1.3,3.4
				c0.5,0.5,1,0.7,1.5,0.7h0h0c0,0-0.1,0-0.1,0c0.7,0.6,1.4,0.9,1.9,1c0.4,0.1,1,0.1,1.1,0.1c0.3-0.1,0.4-0.5,0.4-0.8
				c0.2,0,0.4,0,0.5,0c0.2,0,0.2,0,0.3,0c0,0,0.1,0,0.1,0c0,0,0.1,0,0.1,0c0.2,0.1,0.5,0.2,0.8,0.2c0.6,0.1,1.3,0.2,1.4,0.1
				c0.1-0.1,0.1-0.5,0-0.6c-0.1-0.1-0.4-0.2-0.6-0.3c0.6-0.4,1.1-0.8,1.4-1.3c0.4-0.6,0.6-1.2,0.8-1.9c0.1,0,0.4-0.3,0.4-0.5
				C17.8,15.5,17.7,14.5,17.4,13.1z M7.6,17.7c-0.3,0-0.4-0.4-0.5-0.8c-0.1-0.5-0.5-1.8,0.3-3.7c0.1-0.3,1.1-2.7,2.1-2.7
				c0.2,0,0.4,0.1,0.6,0.3c0.3,0.3,0.3,0.9,0.2,1.2c-0.2,1.5-0.8,2.8-0.9,2.9C8.5,16.8,8,17.7,7.6,17.7z M15.9,18.5
				c-0.5,0.8-1.6,1.6-2.6,1.6c-0.1,0-0.2,0-0.4,0c-0.1,0-0.3,0-0.6,0c-0.2,0-0.4,0-0.6,0c-0.7,0-2-0.1-2.2-0.2
				c-0.2-0.1-0.8-0.3-0.8-1c0-0.1-0.1-1.1,1.1-2.6c0.3-0.4,2.2-2.3,2.2-4.6c0-0.3-0.1-1.2-1.5-2.4C10.3,9,8.1,7.4,8.9,5.6
				c0.1-0.3,0.8-2.1,3-2c0.4,0,0.9,0,1.7,0.7c0.3,0.2,0.8,0.6,1.2,0.6c0.3,0,0.7-0.3,0.8-0.7c0.3,0.2,0.6,0.6,0.8,1
				c-0.1,0-0.2-0.1-0.3-0.1c-0.3,0-0.5,0.2-0.5,0.5c0,0.3,0.2,0.5,0.5,0.5c0.2,0,0.4-0.1,0.4-0.3c0.2,1.2-0.2,2.4-0.4,2.9l-0.1,0.3
				c-0.1,0.2-0.1,0.3-0.2,0.6c-0.4,1.4,0.1,2.4,0.3,2.7C16.5,12.9,17.5,16.2,15.9,18.5z"/>
			<path class="st5" d="M16.6,6.8c0-0.3-0.8-0.5-1.4-0.5c-0.6,0-1.4-0.1-1.4,0.5c0,0.2,0.5,0.6,1,0.7C15.5,7.6,16.6,7,16.6,6.8z"/>
			<path class="st5" d="M11.9,5.2c-0.4,0-0.7,0.3-0.7,0.7s0.3,0.7,0.7,0.7c0.4,0,0.7-0.3,0.7-0.7S12.3,5.2,11.9,5.2z"/>
		</g>
	</g>
</g>
</svg>
